<?xml version="1.0" encoding="UTF-8"?>
<svg version="1.1" viewBox="0 0 2048 1927" width="204" height="192" xmlns="http://www.w3.org/2000/svg">
<path transform="translate(0)" d="m0 0h2048v1927h-2048z"/>
<path transform="translate(573,193)" d="m0 0h62l32 3 43 7 45 9 34 8 39 11 36 12 39 14 24 8 33 10 35 9 51 10 37 6 31 3 26 1h46l29-2 29-4 36-7 31-7 27-8 29-10 21-9 27-13 16-8 24-13 13-9 18-13 8-6h3l6 10 20 52 18 48 9 25 17 44 8 19 1 9-5 6-8 7-13 10-20 14-17 11-16 9-23 12-17 8-19 8-27 10-37 12-32 9-34 8-32 5-29 3-15 1h-49l-45-5-30-5-28-6-24-7-21-6-50-17-35-14-25-11-25-10-40-19-20-10-23-13-22-12-16-9-29-15-19-10-27-13-29-12-22-8-16-4-23-3-26-1h-14l-24 3-9 3-2 3 6 5 9 6 10 11 13 20 12 22 12 23 16 34 14 31 15 33 8 17 5 16 7 16 11 25 9 20 5 7 9 21 18 40 6 14 6 11 8 18 5 12 6 12 7 16 10 24 6 11 4 12 8 16 9 19 16 32 4 10 7 15 4 10 8 16 11 24 4 8 10 29 8 16 9 20 8 16 14 29 10 23 8 15 2 1 2-14 6-23 9-24 13-40 9-23 6-16 8-22 17-44 11-28 13-31 13-29 15-32 3-7 14-28 10-19 14-27 17-34 12-22 13-23 14-22 9-15 16-27 6-9 8-11 4-2 3 3-1 9-12 36-9 28-13 43-17 52-11 28-5 11-15 35-10 23-16 34-9 20-6 15-11 24-10 21-10 19-8 16-11 21-11 17-12 20-11 20-6 11-6 10-15 26-11 19-7 10-5 5-4 2-1-4-2 1 3 9 10 19 13 28 6 14 11 30 5 13 9 17 8 19 13 28 18 36 9 14 8 7 13 5 10 5 1 1v5l-11 14-9 10-7 9-12 14-8 8-7 8-11 11-7 8-11 12-19 19-5 6-5 5-15 14-7 7h-2l-2 4-10 10-11 9-12 10-10 10-4-1-3-7-8-24-11-29-9-24-10-27-13-37-10-28-19-55-11-31-33-87-27-75-12-34-12-36-15-43-9-23-11-29-13-35-15-39-16-47-28-82-10-27-12-30-17-43-12-34-11-35-3-9-2-3-11 3-7 3-31 4h-21l-21-2-15-4-15-6-15-8-12-9-12-11-14-14-10-13-13-25-7-22-4-19-1-8v-44l3-20 6-21 8-21 8-16 7-12 10-13 9-11 12-13 11-11 17-13 13-9 17-10 21-10 21-8 30-9 33-7 26-4z" fill="#E2C179"/>
<path transform="translate(1495,503)" d="m0 0h4l1 2 1 15 1 3 2 21 2 7 3 16 4 44 5 48 1 16 1 30v109l-2 26-5 42-4 36-9 51-12 52-15 57-15 50-14 43-8 21-23 54-19 39-11 22-13 23-16 30-10 17-9 15-10 16-14 21-17 25-14 19-14 18-10 14-14 18-13 16-11 14-12 14-11 12-12 13-16 17-29 29-7 8-26 26-8 7-10 10-11 9-11 10-11 9-9 8-6 3-53 1h-209l-4-9-15-46-16-54-24-82-9-31-11-39-7-28-13-43-20-64-9-30-13-42-10-34-8-28-9-34-18-63-14-47-24-78-17-54-22-80-14-50-14-48-13-42-16-55-5-25 1-6 8-5 19-6 7 1 3 3 8 17 11 29 5 15 15 43 15 49 13 41 12 39 9 29 16 47 14 41 16 49 14 41 12 39 8 27 7 22 17 52 12 37 15 43 27 81 16 51 11 35 8 24 14 44 15 43 29 87 2 11 11-7 11-9 8-6 12-11 8-8 8-7 16-15 11-9 7-7 8-7 12-12 8-7 13-11 13-12 10-10 9-11 12-12 9-11 12-13 22-24 10-11 9-11 10-12 9-12 10-13 27-36 13-18 11-16 13-18 12-20 8-13 13-23 14-27 12-22 16-32 11-23 7-15 12-28 15-40 12-36 11-37 9-39 10-41 10-52 9-64 4-46 1-16v-160l1-8 3-1-1 6 16-4 25-7 41-14 26-10 27-12z" fill="#E2C179"/>
<path transform="translate(574,324)" d="m0 0h14l26 1 23 3 19 5 24 9 28 12 33 16 23 12 19 10 25 14 29 16 23 12 33 16 17 7 29 12 23 10 29 11 47 16 18 5 24 7 6 1-2 1v10l-10 31-9 28-10 35-8 24-9 25-11 28-12 29-8 18-13 27-8 16-12 26-15 33-20 40-8 14-7 11-22 36-7 12-14 20-6 9-6 7-1 3h-3l-1 4-8-16-10-29-12-25-8-18-6-12-5-12-5-11-11-23-8-16-8-17-8-16-4-12-8-15-8-20-9-20-7-15-7-16-5-11-8-16-12-27-14-31-4-9-8-14-11-25-8-18-7-18-3-10-9-19-9-20-15-33-18-39-11-22-13-23-11-18-12-14-9-6-7-6 5-5 14-3z"/>
<path transform="translate(929,467)" d="m0 0 8 1 20 9 34 13 47 16 18 5 24 7 6 1-2 1v10l-10 31-9 28-10 35-8 24-9 25-11 28-12 29-8 18-13 27-8 16-12 26-15 33-20 40-8 14-7 11-22 36-7 12-14 20-6 9-6 7-1 3h-3l-1 4-8-16-10-29-12-25-8-18-6-12-5-12-5-11-11-23-8-16-8-17-8-16-2-5v-5l6-9 14-19 12-19 12-21 13-24 14-26 10-19 8-18 6-16 11-26 11-27 11-28 7-20 10-28 7-19 2-10h2z"/>
<path transform="translate(929,467)" d="m0 0 8 1 20 9 34 13 14 5-1 2-4-1v10l-6 20-12 34-12 37-11 30-11 31-8 20-11 25-16 33-25 50-6 10-12 23-7 12-6 12-8 14-10 17-12 18-4 7h-2l2 12-2-2-5-13-6-13-11-23-8-16-8-17-8-16-2-5v-5l6-9 14-19 12-19 12-21 13-24 14-26 10-19 8-18 6-16 11-26 11-27 11-28 7-20 10-28 7-19 2-10h2z"/>
<path transform="translate(1084,520)" d="m0 0 11 1 24 5 27 4 27 3 1 2 3 1v3l-5 5-16 24-15 26-10 16-13 21-10 18-17 32-19 38-11 20-19 38-4 9-14 30-11 24-11 26-12 30-26 68-7 18-6 17-9 25-10 30-7 19-6 23-3 14-4-2-8-16-12-27-16-34-11-22v-7h3l1-4 9-11 9-14 12-18 6-11 8-13 11-18 10-16 15-29 11-22 18-40 11-23 8-16 13-27 7-17 11-27 14-36 7-21 9-28 10-35 13-40 2-6v-8z"/>
<path transform="translate(1292,535)" d="m0 0h3v8l-10 29-7 18-17 55-15 46-16 45-13 35-14 34-16 36-14 30-10 23-11 25-11 26-16 35-13 25-10 19-12 24-10 17-14 25-15 29-12 22-10 17-14 22-15 24-16 24-6 8-4 4v-9l3-13 6-18 6-23 13-43 12-36 15-42 11-28 14-33 14-34 14-33 11-25 19-43 13-29 6-13 26-52 10-19 8-16 14-27 10-19 9-16 12-23 8-14 15-26 13-20 15-22 9-14 9-13z" fill="#E1C078"/>
<path transform="translate(1080,522)" d="m0 0 3 3v7l-13 41-8 27-9 30-7 20-6 18-13 33-12 29-8 18-13 27-8 16-12 26-15 33-20 40-8 14-7 11-22 36-7 12-14 20-6 9-7 8-3 1-1-4v-7l5-13 5-14 15-50 9-28 6-17 16-41 14-32 8-18 8-20 8-16 12-23 8-16 13-28 18-36 10-17 17-29 12-20 11-18 9-14 7-11z" fill="#E1C078"/>
<path transform="translate(999,497)" d="m0 0h1v9l-6 20-12 34-12 37-11 30-11 31-8 20-11 25-16 33-25 50-6 10-12 23-7 12-6 12-8 14-10 17-13 20-4-1-3-11 1-12 8-27 11-30 15-39 8-20 11-26 11-24 11-26 16-35 11-22 12-22 12-21 8-13 21-35 8-13 9-14z" fill="#E1C078"/>
<path transform="translate(1292,535)" d="m0 0h3v8l-10 29-7 18-17 55-15 46-16 45-13 35-14 34-15 34-4-3-9 9-5-1-3-1v-2l-4-2-2-4v-3h-3l2-14 1-13 3-7 3-8 2-13 4-8 4-14 2-6 1-5h2l2-9 6-9-1-4-5 1-2 6-6 11-10 17-6 11-10 19-3 5-5 13-5 7-6 12-2 5-4 4 2-6 4-9 26-52 10-19 8-16 14-27 10-19 9-16 12-23 8-14 15-26 13-20 15-22 9-14 9-13z" fill="#B4985C"/>
<path transform="translate(444,387)" d="m0 0h19l16 4 11 7 5 5 8 10 5 12 2 8v19l-4 14-7 13-5 6-11 8-9 4-12 3h-13l-11-3-9-4-10-6-8-8-7-12-4-11-1-4v-16l2-10 8-16 6-8 9-7 10-5z"/>
<path transform="translate(922,469)" d="m0 0 1 2 4 1 1 3-8 24-7 19-10 27-7 20-6 14-10 25-11 26-11 28-12 24-12 22-14 26-14 24-14 22-13 17-4 6h-2v-10l4-13 5-14 9-30 8-24 9-24 12-31 9-21 11-24 10-20 12-22 13-25 9-15 13-23 16-25z" fill="#E1C079"/>
<path transform="translate(850,439)" d="m0 0 5 1 2 4-2 13-8 24-10 25-13 32-8 20-11 24-15 30-10 19-14 27-13 24-10 16-6 8h-2l-1-5v-12l4-16 7-19 5-14 10-25 10-24 9-20 18-39 28-56 12-22 8-10z" fill="#E0BF78"/>
<path transform="translate(790,405)" d="m0 0 5 2-1 7-6 16-17 47-11 28-16 35-14 28-12 21-12 20-4 2-2 4-3 5h-2l1-13 7-26 12-34 12-28 13-29 8-16 13-22 8-14 10-17 8-12z" fill="#E0C078"/>
<path transform="translate(1025,535)" d="m0 0h11l1 1 2 14-1 3-1 5-4 1-2 9-3 1v6h4l-1 7-3 9-8 17v5l3 1-2 5-4 7-1-2 1-4-3 1-6 8-5 5-3-1-1-2-1-10-4-3-4-1-2-10-1-7 4-14 4-7 5-15 3-1 2-6 7-11 4-5z" fill="#050005"/>
<path transform="translate(729,373)" d="m0 0 6 2 2 1-1 10-8 22-16 37-12 25-12 23-12 21-9 14-7 11-2 1-1-6 3-12 5-15 13-32 5-12 14-31 11-24 8-16 8-13z" fill="#FCFACD"/>
<path transform="translate(1505,554)" d="m0 0h2l3 21 5 57 3 27 1 16 1 30v109l-2 26-5 42-4 36-9 51-6 26h-1v-8l3-21 2-19 4-24 7-67 3-26 1-23 1-42v-43l-1-44-2-28-4-42-2-24z" fill="#B4985C"/>
<path transform="translate(1351,547)" d="m0 0h2l-1 6 2 1-3 4v5l2-1 1 93v40l-1 40-3 36-8 66-5 28-9 50-2 8-6 25-6 21-5 18-9 26-4 9-10 24-3 7-1-3 12-36 12-40 9-39 10-41 10-52 9-64 4-46 1-16v-160l1-8z" fill="#B4985C"/>
<path transform="translate(887,708)" d="m0 0h2l-1 7-5 15-4 11-3 13v2l5 1 1 4-3 18 5 1 1 4-5 7-3 3-2 10-8 13-7 15h-2v2l-4-1-3-1-4 3h-5l-1-2v-9l5-18 4-10 5-15 5-13 9-22 4-8 3-10 5-7 5-12z" fill="#FFFFD4"/>
<path transform="translate(831,469)" d="m0 0 4 5-4 18-1 2v11l2 5-6 15-5 12-6 7-6 4-5 8-6 7-7 11-12 20-10 21-5 3-1-3 8-21 11-26 15-33 3-9 25-50 3-5z" fill="#FDFCD0"/>
<path transform="translate(1224,845)" d="m0 0 7 1 7 5v4l3-1 5 4 6 1 1 1-1 7-5 4v2l6-1-2 12-4 3 4 5v2l2 1 1 5-7 4 6 7-1 6-4 5-9-2-4-4-6-4-2-4v-3l-5-2-1-4-1-7 2-2 7 1-3-3-10-5-1-4-2-6 1-8 3-6 2-1v-6l4-4 2 1z" fill="#050005"/>
<path transform="translate(1172,514)" d="m0 0 9 1 1 2 8 2h63l5-1 19 1 5 1 2 2 6-1v3l5 2 1 2-28 4-36 3h-49l-10-1 2-2-13-4-4-7 1-3h6l3-3z" fill="#B5995D"/>
<path transform="translate(898,504)" d="m0 0 1 2h2v2h2v8l7-2-1 8-4 14-6 15-6 16-4 8-6 15-4 8-6 14-3 1 1-8 4-11v-11l-8-3-3-4 1-7 7-15 8-15 5-12 5-9 4-10z" fill="#FEFED3"/>
<path transform="translate(1177,538)" d="m0 0 3 1 1 2-1 9-12 36-9 28-13 43-17 52-11 28-5 11-3 7-1-3 8-23h-2l-2 9-2 3 1-8 1-5 4-4 6-20 11-30 6-17 3-12 4-13 6-21 5-16 5-19-1-5-3 1-9 15-4 1-6 10-14 23-6 10-11 19-8 16-9 16-8 16-10 19-1-2 23-46 12-22 13-23 14-22 9-15 16-27 6-9 8-11z" fill="#B4985C"/>
<path transform="translate(1241,961)" d="m0 0 4 1 1 6-3 2 4 3v2h2l-1 6v2 11l-2 6h-2v6l-5 6-2 2-2 4 1 3-4 10-5 7h4l-1 8-6 3h-3l2 4v3l-4 4h-3l1-8 2-2-3-1-1-9 4-1h2l-2-5-7-4 3-9 1-5-2-4v-5l6-7 3-6-3-2 2-4h5v-4h2l2-10 6 2 1 1 3-9-2-1 1-5z" fill="#050005"/>
<path transform="translate(729,373)" d="m0 0 6 2 2 1-1 10-8 22-16 37-12 25-6 11-1-2 9-19 7-18h-3l-1-5 2-10-3-3-4 6-4 9-1-3 13-28 8-16 8-13z" fill="#DFBE77"/>
<path transform="translate(1719,338)" d="m0 0h10l2 4 5 42 1 13-2 3-5 1-7-3-2-3v-7l3-8v-13h-2l-5 17h-2l-3-8-1-5v-22l2-9z" fill="#DEBD77"/>
<path transform="translate(790,405)" d="m0 0 5 2-1 7-12 32h-2l-3 10-7 19-4 2-2-4v-3l-6 3-5 5-5 1 1-7 8-13 9-16 10-17 11-17z" fill="#F9F6C9"/>
<path transform="translate(1629,338)" d="m0 0h24l2 1 1 9-4 2-10 2-3 1-1 39-2 8-7 1-5-5v-51l4-6z" fill="#DBBB75"/>
<path transform="translate(898,901)" d="m0 0 4 1-2 19-5 18-5 11-2 6 3-3 5-10 4 1v5l-10 18-6 8-4 6-4 10-6 5h-2v-7l7-5v-17l8-28 11-30z" fill="#FEFED2"/>
<path transform="translate(764,381)" d="m0 0 12 5 16 8 45 22 23 10 22 12 19 10 19 9 8 5 29 13 8 3v1l-8-1-32-14-25-10-40-19-20-10-23-13-22-12-16-9-15-8z" fill="#F7F3C4"/>
<path transform="translate(1672,338)" d="m0 0 10 1 3 4-1 7-4 8-4 28-1 10-3 3-8 1-3-4 1-7 2-10 1-38 1-2z" fill="#DEBE77"/>
<path transform="translate(1292,535)" d="m0 0h3v8l-10 29-7 18-10 32h-2l-2 9h-3l1-10 3-9 6-24-2-2v-4h-2v-5l6-9 3-7 2-8 9-13z" fill="#B4985C"/>
<path transform="translate(1162,285)" d="m0 0 3 1 1 3 8 1 12 1 2-2h4l2 4-2 3-12 2-10 1 16 4v2h-46l-11-1-1-3 6-2 1-2-16-3 1-3 21-1 12-1 5 1 2-1z" fill="#050005"/>
<path transform="translate(922,469)" d="m0 0 1 2 4 1 1 3-8 24-7 19-10 27-2 6-2-1 3-9 3-7 5-20-4 2h-3v-8h-2v-2l-5 1 2-5 11-18 7-9z" fill="#DFBE77"/>
<path transform="translate(414,240)" d="m0 0 4 1-11 9-12 9-7 7-8 7h-2l-2 4-9 10-7 9-13 16-11 17-7 12-4 7-2-1 7-17 5-12 10-14 13-16 12-13 11-11 17-13 13-9z" fill="#F6F1C2"/>
<path transform="translate(1688,349)" d="m0 0 3 1 9 21 6 19v6l-2 3h-7l-6-4-3-6-1-5v-28z" fill="#DDBC76"/>
<path transform="translate(737,1184)" d="m0 0 2 2 11 23 9 20 4 8 5 18 9 26 3 14v4h-2l-13-35-20-52-8-22z" fill="#F5F0C1"/>
<path transform="translate(1158,255)" d="m0 0 13 1v2h3v4l-3 1-1 3h2v2l-7 2-2 1 2 2-4 2-3-6-6-1v6h-4l-2-6-5-3-8-1 1-4 5-3 5-1z" fill="#060106"/>
<path transform="translate(1013,554)" d="m0 0h5l4 6-2 5h-2l-2 5-4 7-3 16-5 3h-7l-1-4 2-3 4-15 3-2-2 5 6-3v-4l-3 1 2-10z"/>
<path transform="translate(1280,553)" d="m0 0 2 2-1 7-6 16-2 4 4 5v7l-9 28h-2l-2 9h-3l1-10 3-9 6-24-2-2v-4h-2v-5l6-9 3-7 1-6z" fill="#DEBD77"/>
<path transform="translate(850,1493)" d="m0 0 3 1 4 8 6 15 8 19 3 1 10-5 4-3h5l-6 8-5 4-4 4-5 3h-4l-4-9-4-13-7-18-4-12z" fill="#FDFBCF"/>
<path transform="translate(1153,631)" d="m0 0h1l-1 9-5 16-11 37-10 28-16 35-11 26-8 19-2 1 3-10 14-32 9-21 6-15 9-24 16-49z" fill="#060106"/>
<path transform="translate(1147,926)" d="m0 0 1 3-17 38-9 19-12 22-20 40-2 1 2-6 14-29 9-19 8-16 9-19 14-28z" fill="#B4985C"/>
<path transform="translate(1089,802)" d="m0 0 1 3-9 19-14 31-3 8-11 25-13 28-9 17-6 12-10 18-3 6-1-3 11-21 8-16 11-21 12-26 8-19 5-12 16-34z" fill="#060106"/>
<path transform="translate(1612,336)" d="m0 0h13l-1 6-3 4-1-1-2 4 5-2-2 6-2 2-4-1-1-3-5-1-3-5 1-6z" fill="#DCBC76"/>
<path transform="translate(1261,1104)" d="m0 0 1 3-6 15-8 18-20 40-10 17-4 7-1-2 21-41 17-35z" fill="#B4985C"/>
<path transform="translate(828,233)" d="m0 0 9 1 36 12 13 5v2l2 1h-7l-10-3-17-7-6-2-17-6z" fill="#F2EAB9"/>
<path transform="translate(879,946)" d="m0 0h2l-2 11-3 10v17l-7 5-1 7 4-2-2 4-5 3-1-4v-7l5-13 5-14 3-10z" fill="#D7B872"/>
<path transform="translate(819,870)" d="m0 0h1v12l3 11 3 2-3 4h-2l2 12-2-2-5-13-6-13-2-6 10 1z" fill="#050005"/>
<path transform="translate(1326,884)" d="m0 0h1l-1 10-12 50-9 37-10 33-1-4 10-35 5-23 14-54z" fill="#060106"/>
<path transform="translate(1246,688)" d="m0 0 1 4-21 60-12 31-7 17-3 3 1-5 13-32 14-39z" fill="#060106"/>
<path transform="translate(1506,567)" d="m0 0 2 1 2 7 3 36v17l-2 3-3-25-2-32z" fill="#D9B973"/>
<path transform="translate(926,1068)" d="m0 0 1 3-4 14-1 17-1 4 3 1v3l3-1-1 3-5 4h-2l-1-4-2 1 2 9-4-4-3-9 1-3 4 4 2-14 6-23z" fill="#B4985C"/>
<path transform="translate(1145,934)" d="m0 0 1 3-11 26-14 28-10 19-16 31-2 1 2-6 15-30 12-22 15-32z" fill="#060106"/>
<path transform="translate(334,523)" d="m0 0 5 5 12 13 13 13 13 10 16 9 14 6 13 4 11 2v1h-8l-17-5-19-8-14-9-11-9-10-9-11-12-7-9z" fill="#060106"/>
<path transform="translate(904,1586)" d="m0 0 1 3-2 4-4 1-2 6-5 6-8 7-6 5-4-1 2-5h2v-2l8-7 7-7 8-7z" fill="#FFFFD4"/>
<path transform="translate(423,489)" d="m0 0 5 1 6 3 4-1v-2l10 3 3 1 13 1 7 2-3 2-6 1h-13l-11-3-9-4-6-3z" fill="#050005"/>
<path transform="translate(1018,598)" d="m0 0 3 1-4 9-5 10-1 3h-2l-1 4-4 3-2-4 6-15 7-9z"/>
<path transform="translate(1612,335)" d="m0 0h17l27 2 2 6-1 9h-15l3-2 10-2v-9h-26l-4 6-1 9-3-1 1-5-4 1 1-5h3l3-8-4 1h-7z" fill="#060106"/>
<path transform="translate(1054,1109)" d="m0 0 1 2-12 23-14 24-21 33-1-2 10-18 4-8 3-3 1-3 2-1 6-11 7-11 13-24z" fill="#B4985C"/>
<path transform="translate(1724,365)" d="m0 0h1v15l-4 13-1-3h-5l-1 3-5-2-1-4 6-2 1-3v2h2l4-18 3 1z" fill="#060106"/>
<path transform="translate(1449,1150)" d="m0 0 1 3-10 29-12 29-3 4 2-9 6-17 2-10 2-5 3-1 8-21z" fill="#B4985C"/>
<path transform="translate(729,373)" d="m0 0 6 2 2 1-1 10-4 2-4 4-1-6h-4l-1-4z" fill="#B4985C"/>
<path transform="translate(1048,642)" d="m0 0h1l-1 7-7 20-4 12-5 11-7 17-5 13-3 6-1-3 12-29 14-36z" fill="#060106"/>
<path transform="translate(708,592)" d="m0 0h3l1 4-5 9-2 5-3 1-2 4-3-1 1-6 2-5 5-5z" fill="#FAF7CA"/>
<path transform="translate(1335,1388)" d="m0 0 1 2-9 15-10 15-7 10-2-1 2-4 7-12 2-3h2l2-5 6-8z" fill="#B4985C"/>
<path transform="translate(1246,925)" d="m0 0 5 1v6l-5 5-5 1-2-1v-4l-2-1 3-2h3l1-4z" fill="#060106"/>
<path transform="translate(400,429)" d="m0 0h1l2 8h2v8l-3 15-2-4-1-4v-16z" fill="#060106"/>
<path transform="translate(1168,292)" d="m0 0 14 1v2l-4 2-13 1-9-1-2-1v-2l5-1z"/>
<path transform="translate(848,1493)" d="m0 0h2l11 31 3 7 4 14 2 3 4-2h3l-5 5-4-1-3-7-8-24-9-24z" fill="#D8B873"/>
<path transform="translate(822,862)" d="m0 0h1v26l2 3 9-14 3-2-2 5-9 14-4-1-3-11 1-12z" fill="#B4985C"/>
<path transform="translate(1612,336)" d="m0 0h13l-1 6-3 4-1-1-2 4 5-2-2 6-4-2 1-10-10-2 1-2z" fill="#B4985C"/>
<path transform="translate(692,481)" d="m0 0 1 2-15 28-10 15-3 4 1-5 10-16 4-8 8-13z" fill="#D6B672"/>
<path transform="translate(925,461)" d="m0 0 12 5 20 9 8 3v1l-8-1-32-14-3-2z" fill="#EBDFAB"/>
<path transform="translate(1249,1506)" d="m0 0 1 4-2 2-2 6-10 13-2-4 11-16h2z" fill="#CFB06D"/>
<path transform="translate(646,519)" d="m0 0 3 4 6 10v3l3-1 2 4-1 13-2-2-5-16-6-12z" fill="#060106"/>
<path transform="translate(772,1709)" d="m0 0 4 4 3 6v2l4 2 2 3-7 2-3-5-3-11z" fill="#FFFFD4"/>
<path transform="translate(868,1621)" d="m0 0h2l-1 5-11 8-9 2 4-4 10-7z" fill="#FFFFD4"/>
<path transform="translate(478,595)" d="m0 0h6l2 1-1 10-8 1 1-4-3-2v-2l3-1 2 3-1-3-4-2z" fill="#050005"/>
<path transform="translate(640,508)" d="m0 0 3 4 8 18 4 10 2 10-3-4-7-18-7-17z" fill="#B4985C"/>
<path transform="translate(921,462)" d="m0 0 11 4-2 2-1 4-6-1-2-1v-2l-3-2v-3z" fill="#0A0507"/>
<path transform="translate(1118,981)" d="m0 0h2l-2 6-5 10-8 17h-2l3-10 9-17z" fill="#E3C27A"/>
<path transform="translate(865,984)" d="m0 0 1 3-1 4v9h3v2h-3l-1 4-5-11 1-4h2l1-6z" fill="#060106"/>
<path transform="translate(922,469)" d="m0 0 1 2 4 1 1 3-3 10h-1v-5l-3 1-1-7v-3z" fill="#B4985C"/>
<path transform="translate(776,580)" d="m0 0 1 2-11 27-3 1 3-10 8-18z" fill="#DBBB75"/>
<path transform="translate(1357,545)" d="m0 0 4 1 7 3v1l-16 3v-7z" fill="#060106"/>
<path transform="translate(784,413)" d="m0 0 4 2-1 5-4 6-2 1-1-3-3 2 2-5z" fill="#E0C480"/>
<path transform="translate(894,960)" d="m0 0 1 3-14 20-3 5-1-3 3-5 7-11 4-5z" fill="#D6B671"/>
<path transform="translate(1722,356)" d="m0 0 4 3 1 6-1 14h-1l-1-12h-2l-2 4v-8z" fill="#B1955A"/>
<path transform="translate(665,507)" d="m0 0 1 3-7 23 6-3-2 5-5 5-1-6 3-12z" fill="#D3B470"/>
<path transform="translate(1315,514)" d="m0 0 2 2-9 5-8 4 2 2h-6l3-5 10-6z" fill="#B4985C"/>
<path transform="translate(1201,1564)" d="m0 0v3l-2 3h-2l-2 4-12 13-5 4 2-4 6-7h2l2-4z" fill="#B4985C"/>
<path transform="translate(764,381)" d="m0 0 12 5 14 8v2l-5-2-20-10z" fill="#E9DBA5"/>
<path transform="translate(1025,1345)" d="m0 0 4 2 13 5 10 5 1 1v5l-1-4-3-1-15-6-6-3z" fill="#B4985C"/>
<path transform="translate(916,1112)" d="m0 0h2l1 4 5-4 2 1-4 6h-2l2 9-3-4-4-9z" fill="#060106"/>
<path transform="translate(733,690)" d="m0 0h1l1 16 6-5-2 7-2 2h-3l-1 3-1-2 1-8z" fill="#060106"/>
<path transform="translate(1501,523)" d="m0 0h1l2 21 1 7h-4z" fill="#B4985C"/>
<path transform="translate(466,388)" d="m0 0 10 2 10 5 1 2-9-3-14-3z" fill="#060106"/>
<path transform="translate(706,452)" d="m0 0h2l-2 6-11 22-2 1 2-6 8-18z" fill="#D8B873"/>
<path transform="translate(897,1591)" d="m0 0v3l-12 11-5 5h-2v2l-3-1 17-16z" fill="#D7B872"/>
<path transform="translate(918,1091)" d="m0 0h1l-1 10-2 9-4-2-3-9 3 2 1 4 3-7z" fill="#060106"/>
<path transform="translate(965,1529)" d="m0 0 3 1-10 9-10 8-3 2 2-4 11-10z" fill="#ECDFAA"/>
<path transform="translate(1173,534)" d="m0 0h10l1 6-2 6h-1l-1-7-3-1v-2l-4-1z" fill="#050005"/>
<path transform="translate(1241,961)" d="m0 0 4 1 1 6-5 3v-3l-2-1 1-5z" fill="#060106"/>
<path transform="translate(909,525)" d="m0 0 1 2-7 18-2 6-2-1 3-9 3-7 2-7z" fill="#D5B571"/>
<path transform="translate(543,329)" d="m0 0 2 1v9l-4-2-3-4z" fill="#040004"/>
<path transform="translate(871,1615)" d="m0 0m-1 1m-1 1m-1 1m-1 1m-1 1m-1 1v3l-7 6-6 4-3-1 11-8z" fill="#DCBC75"/>
<path transform="translate(866 1e3)" d="m0 0 2 3 7 18-1 2-8-16-1-5z" fill="#060106"/>
<path transform="translate(409,410)" d="m0 0 1 3-3 5 2 1-2 2v3l-5 2 1-5z" fill="#050005"/>
<path transform="translate(424,395)" d="m0 0 5 2-4 2h-4v2h-2l-2 6-4-3 8-7z" fill="#050005"/>
<path transform="translate(1128,962)" d="m0 0 1 3-8 16-1-4 4-10z" fill="#E3C27A"/>
<path transform="translate(899,550)" d="m0 0 1 4-6 15-2-2 4-11z" fill="#DBBB75"/>
<path transform="translate(925,461)" d="m0 0 12 5 4 2v2l-9-3-10-4z" fill="#E8D9A1"/>
<path transform="translate(478,490)" d="m0 0h6l1 2-8 4-6 1 1-3 4-1z" fill="#050005"/>
<path transform="translate(850,439)" d="m0 0 5 1 2 4-2 13-2-2 2-10h-2l-1-5z" fill="#B4985C"/>
<path transform="translate(734,689)" d="m0 0h1l1 12 5-2-2 5-4 2-1-5z" fill="#B4985C"/>
<path transform="translate(1120,974)" d="m0 0 1 3-1 4h-2l-1 5-4 6-1-2z" fill="#B4985C"/>
<path transform="translate(1249,1506)" d="m0 0 1 4-9 10v-3l4-6h2z" fill="#B4985C"/>
<path transform="translate(885,973)" d="m0 0 1 3-8 12-1-3 3-5z" fill="#D9B974"/>
<path transform="translate(1704,358)" d="m0 0 2 1v8l-3 1-1-7z" fill="#060106"/>
<path transform="translate(1007,570)" d="m0 0h2l1 4-4 3h-3l2-5z" fill="#060106"/>
<path transform="translate(936,1094)" d="m0 0v3l-8 12-1-2 6-10z" fill="#B4985C"/>
<path transform="translate(1080,519)" d="m0 0h6l-2 1v10h-1l-2-6-2-1z" fill="#060106"/>
<path transform="translate(405,462)" d="m0 0 5 4 1 3-4-1-2 1-2-6z" fill="#060106"/>
</svg>
